<?xml version="1.0" encoding="UTF-8"?>
<svg width="193px" height="170px" viewBox="0 0 193 170" version="1.1" xmlns="http://www.w3.org/2000/svg" xmlns:xlink="http://www.w3.org/1999/xlink">
    <!-- Generator: Sketch 52.5 (67469) - http://www.bohemiancoding.com/sketch -->
    <title>Group 5</title>
    <desc>Created with Sketch.</desc>
    <g id="Page-1" stroke="none" stroke-width="1" fill="none" fill-rule="evenodd">
        <g id="EWP-Full-Home-V1.2" transform="translate(-240.000000, -1170.000000)" fill="#FFFFFF">
            <g id="Group-5" transform="translate(240.000000, 1170.000000)">
                <polygon id="Triangle" points="8 0 16 11 0 11"></polygon>
                <polygon id="Triangle-Copy-4" points="109 0 117 11 101 11"></polygon>
                <polygon id="Triangle-Copy-2" points="58 0 66 11 50 11"></polygon>
                <polygon id="Triangle-Copy-5" points="159 0 167 11 151 11"></polygon>
                <polygon id="Triangle-Copy" points="34 0 42 11 26 11"></polygon>
                <polygon id="Triangle-Copy-6" points="135 0 143 11 127 11"></polygon>
                <polygon id="Triangle-Copy-3" points="84 0 92 11 76 11"></polygon>
                <polygon id="Triangle-Copy-7" points="185 0 193 11 177 11"></polygon>
                <polygon id="Triangle" points="8 91 16 102 0 102"></polygon>
                <polygon id="Triangle-Copy-4" points="109 91 117 102 101 102"></polygon>
                <polygon id="Triangle-Copy-2" points="58 91 66 102 50 102"></polygon>
                <polygon id="Triangle-Copy-5" points="159 91 167 102 151 102"></polygon>
                <polygon id="Triangle-Copy" points="34 91 42 102 26 102"></polygon>
                <polygon id="Triangle-Copy-6" points="135 91 143 102 127 102"></polygon>
                <polygon id="Triangle-Copy-3" points="84 91 92 102 76 102"></polygon>
                <polygon id="Triangle-Copy-7" points="185 91 193 102 177 102"></polygon>
                <polygon id="Triangle" points="8 46 16 57 0 57"></polygon>
                <polygon id="Triangle-Copy-4" points="109 46 117 57 101 57"></polygon>
                <polygon id="Triangle-Copy-2" points="58 46 66 57 50 57"></polygon>
                <polygon id="Triangle-Copy-5" points="159 46 167 57 151 57"></polygon>
                <polygon id="Triangle-Copy" points="34 46 42 57 26 57"></polygon>
                <polygon id="Triangle-Copy-6" points="135 46 143 57 127 57"></polygon>
                <polygon id="Triangle-Copy-3" points="84 46 92 57 76 57"></polygon>
                <polygon id="Triangle-Copy-7" points="185 46 193 57 177 57"></polygon>
                <polygon id="Triangle" points="8 137 16 148 0 148"></polygon>
                <polygon id="Triangle-Copy-4" points="109 137 117 148 101 148"></polygon>
                <polygon id="Triangle-Copy-2" points="58 137 66 148 50 148"></polygon>
                <polygon id="Triangle-Copy-5" points="159 137 167 148 151 148"></polygon>
                <polygon id="Triangle-Copy" points="34 137 42 148 26 148"></polygon>
                <polygon id="Triangle-Copy-6" points="135 137 143 148 127 148"></polygon>
                <polygon id="Triangle-Copy-3" points="84 137 92 148 76 148"></polygon>
                <polygon id="Triangle-Copy-7" points="185 137 193 148 177 148"></polygon>
                <polygon id="Triangle" points="8 22 16 33 0 33"></polygon>
                <polygon id="Triangle-Copy-4" points="109 22 117 33 101 33"></polygon>
                <polygon id="Triangle-Copy-2" points="58 22 66 33 50 33"></polygon>
                <polygon id="Triangle-Copy-5" points="159 22 167 33 151 33"></polygon>
                <polygon id="Triangle-Copy" points="34 22 42 33 26 33"></polygon>
                <polygon id="Triangle-Copy-6" points="135 22 143 33 127 33"></polygon>
                <polygon id="Triangle-Copy-3" points="84 22 92 33 76 33"></polygon>
                <polygon id="Triangle-Copy-7" points="185 22 193 33 177 33"></polygon>
                <polygon id="Triangle" points="8 113 16 124 0 124"></polygon>
                <polygon id="Triangle-Copy-4" points="109 113 117 124 101 124"></polygon>
                <polygon id="Triangle-Copy-2" points="58 113 66 124 50 124"></polygon>
                <polygon id="Triangle-Copy-5" points="159 113 167 124 151 124"></polygon>
                <polygon id="Triangle-Copy" points="34 113 42 124 26 124"></polygon>
                <polygon id="Triangle-Copy-6" points="135 113 143 124 127 124"></polygon>
                <polygon id="Triangle-Copy-3" points="84 113 92 124 76 124"></polygon>
                <polygon id="Triangle-Copy-7" points="185 113 193 124 177 124"></polygon>
                <polygon id="Triangle" points="8 68 16 79 0 79"></polygon>
                <polygon id="Triangle-Copy-4" points="109 68 117 79 101 79"></polygon>
                <polygon id="Triangle-Copy-2" points="58 68 66 79 50 79"></polygon>
                <polygon id="Triangle-Copy-5" points="159 68 167 79 151 79"></polygon>
                <polygon id="Triangle-Copy" points="34 68 42 79 26 79"></polygon>
                <polygon id="Triangle-Copy-6" points="135 68 143 79 127 79"></polygon>
                <polygon id="Triangle-Copy-3" points="84 68 92 79 76 79"></polygon>
                <polygon id="Triangle-Copy-7" points="185 68 193 79 177 79"></polygon>
                <polygon id="Triangle" points="8 159 16 170 0 170"></polygon>
                <polygon id="Triangle-Copy-4" points="109 159 117 170 101 170"></polygon>
                <polygon id="Triangle-Copy-2" points="58 159 66 170 50 170"></polygon>
                <polygon id="Triangle-Copy-5" points="159 159 167 170 151 170"></polygon>
                <polygon id="Triangle-Copy" points="34 159 42 170 26 170"></polygon>
                <polygon id="Triangle-Copy-6" points="135 159 143 170 127 170"></polygon>
                <polygon id="Triangle-Copy-3" points="84 159 92 170 76 170"></polygon>
                <polygon id="Triangle-Copy-7" points="185 159 193 170 177 170"></polygon>
            </g>
        </g>
    </g>
</svg>