<?xml version="1.0" encoding="UTF-8"?>
<svg width="253px" height="224px" viewBox="0 0 253 224" version="1.1" xmlns="http://www.w3.org/2000/svg" xmlns:xlink="http://www.w3.org/1999/xlink">
    <!-- Generator: Sketch 52.5 (67469) - http://www.bohemiancoding.com/sketch -->
    <title>Group 7</title>
    <desc>Created with Sketch.</desc>
    <g id="Page-1" stroke="none" stroke-width="1" fill="none" fill-rule="evenodd">
        <g id="EWP-Full-Home-V1.2" transform="translate(-1038.000000, -4737.000000)" fill="#000000">
            <g id="Group-7" transform="translate(1038.000000, 4737.000000)">
                <g id="Group-6">
                    <polygon id="Triangle" points="10.3461214 0 20.6922428 16 0 16"></polygon>
                    <polygon id="Triangle-Copy-4" points="143.103569 0 153.449691 16 132.757448 16"></polygon>
                    <polygon id="Triangle-Copy-2" points="76.6892917 0 87.0354132 16 66.3431703 16"></polygon>
                    <polygon id="Triangle-Copy-5" points="209.44674 0 219.792861 16 199.100618 16"></polygon>
                    <polygon id="Triangle-Copy" points="43.5532603 0 53.8993817 16 33.2071388 16"></polygon>
                    <polygon id="Triangle-Copy-6" points="176.310708 0 186.65683 16 165.964587 16"></polygon>
                    <polygon id="Triangle-Copy-3" points="109.896431 0 120.242552 16 99.5503092 16"></polygon>
                    <polygon id="Triangle-Copy-7" points="242.653879 0 253 16 232.307757 16"></polygon>
                </g>
                <g id="Group-6-Copy-4" transform="translate(0.000000, 118.000000)">
                    <polygon id="Triangle" points="10.3461214 0 20.6922428 16 0 16"></polygon>
                    <polygon id="Triangle-Copy-4" points="143.103569 0 153.449691 16 132.757448 16"></polygon>
                    <polygon id="Triangle-Copy-2" points="76.6892917 0 87.0354132 16 66.3431703 16"></polygon>
                    <polygon id="Triangle-Copy-5" points="209.44674 0 219.792861 16 199.100618 16"></polygon>
                    <polygon id="Triangle-Copy" points="43.5532603 0 53.8993817 16 33.2071388 16"></polygon>
                    <polygon id="Triangle-Copy-6" points="176.310708 0 186.65683 16 165.964587 16"></polygon>
                    <polygon id="Triangle-Copy-3" points="109.896431 0 120.242552 16 99.5503092 16"></polygon>
                    <polygon id="Triangle-Copy-7" points="242.653879 0 253 16 232.307757 16"></polygon>
                </g>
                <g id="Group-6-Copy-2" transform="translate(0.000000, 60.000000)">
                    <polygon id="Triangle" points="10.3461214 0 20.6922428 16 0 16"></polygon>
                    <polygon id="Triangle-Copy-4" points="143.103569 0 153.449691 16 132.757448 16"></polygon>
                    <polygon id="Triangle-Copy-2" points="76.6892917 0 87.0354132 16 66.3431703 16"></polygon>
                    <polygon id="Triangle-Copy-5" points="209.44674 0 219.792861 16 199.100618 16"></polygon>
                    <polygon id="Triangle-Copy" points="43.5532603 0 53.8993817 16 33.2071388 16"></polygon>
                    <polygon id="Triangle-Copy-6" points="176.310708 0 186.65683 16 165.964587 16"></polygon>
                    <polygon id="Triangle-Copy-3" points="109.896431 0 120.242552 16 99.5503092 16"></polygon>
                    <polygon id="Triangle-Copy-7" points="242.653879 0 253 16 232.307757 16"></polygon>
                </g>
                <g id="Group-6-Copy-5" transform="translate(0.000000, 179.000000)">
                    <polygon id="Triangle" points="10.3461214 0 20.6922428 16 0 16"></polygon>
                    <polygon id="Triangle-Copy-4" points="143.103569 0 153.449691 16 132.757448 16"></polygon>
                    <polygon id="Triangle-Copy-2" points="76.6892917 0 87.0354132 16 66.3431703 16"></polygon>
                    <polygon id="Triangle-Copy-5" points="209.44674 0 219.792861 16 199.100618 16"></polygon>
                    <polygon id="Triangle-Copy" points="43.5532603 0 53.8993817 16 33.2071388 16"></polygon>
                    <polygon id="Triangle-Copy-6" points="176.310708 0 186.65683 16 165.964587 16"></polygon>
                    <polygon id="Triangle-Copy-3" points="109.896431 0 120.242552 16 99.5503092 16"></polygon>
                    <polygon id="Triangle-Copy-7" points="242.653879 0 253 16 232.307757 16"></polygon>
                </g>
                <g id="Group-6-Copy" transform="translate(0.000000, 29.000000)">
                    <polygon id="Triangle" points="10.3461214 0 20.6922428 16 0 16"></polygon>
                    <polygon id="Triangle-Copy-4" points="143.103569 0 153.449691 16 132.757448 16"></polygon>
                    <polygon id="Triangle-Copy-2" points="76.6892917 0 87.0354132 16 66.3431703 16"></polygon>
                    <polygon id="Triangle-Copy-5" points="209.44674 0 219.792861 16 199.100618 16"></polygon>
                    <polygon id="Triangle-Copy" points="43.5532603 0 53.8993817 16 33.2071388 16"></polygon>
                    <polygon id="Triangle-Copy-6" points="176.310708 0 186.65683 16 165.964587 16"></polygon>
                    <polygon id="Triangle-Copy-3" points="109.896431 0 120.242552 16 99.5503092 16"></polygon>
                    <polygon id="Triangle-Copy-7" points="242.653879 0 253 16 232.307757 16"></polygon>
                </g>
                <g id="Group-6-Copy-6" transform="translate(0.000000, 148.000000)">
                    <polygon id="Triangle" points="10.3461214 0 20.6922428 16 0 16"></polygon>
                    <polygon id="Triangle-Copy-4" points="143.103569 0 153.449691 16 132.757448 16"></polygon>
                    <polygon id="Triangle-Copy-2" points="76.6892917 0 87.0354132 16 66.3431703 16"></polygon>
                    <polygon id="Triangle-Copy-5" points="209.44674 0 219.792861 16 199.100618 16"></polygon>
                    <polygon id="Triangle-Copy" points="43.5532603 0 53.8993817 16 33.2071388 16"></polygon>
                    <polygon id="Triangle-Copy-6" points="176.310708 0 186.65683 16 165.964587 16"></polygon>
                    <polygon id="Triangle-Copy-3" points="109.896431 0 120.242552 16 99.5503092 16"></polygon>
                    <polygon id="Triangle-Copy-7" points="242.653879 0 253 16 232.307757 16"></polygon>
                </g>
                <g id="Group-6-Copy-3" transform="translate(0.000000, 90.000000)">
                    <polygon id="Triangle" points="10.3461214 0 20.6922428 16 0 16"></polygon>
                    <polygon id="Triangle-Copy-4" points="143.103569 0 153.449691 16 132.757448 16"></polygon>
                    <polygon id="Triangle-Copy-2" points="76.6892917 0 87.0354132 16 66.3431703 16"></polygon>
                    <polygon id="Triangle-Copy-5" points="209.44674 0 219.792861 16 199.100618 16"></polygon>
                    <polygon id="Triangle-Copy" points="43.5532603 0 53.8993817 16 33.2071388 16"></polygon>
                    <polygon id="Triangle-Copy-6" points="176.310708 0 186.65683 16 165.964587 16"></polygon>
                    <polygon id="Triangle-Copy-3" points="109.896431 0 120.242552 16 99.5503092 16"></polygon>
                    <polygon id="Triangle-Copy-7" points="242.653879 0 253 16 232.307757 16"></polygon>
                </g>
                <g id="Group-6-Copy-7" transform="translate(0.000000, 208.000000)">
                    <polygon id="Triangle" points="10.3461214 0 20.6922428 16 0 16"></polygon>
                    <polygon id="Triangle-Copy-4" points="143.103569 0 153.449691 16 132.757448 16"></polygon>
                    <polygon id="Triangle-Copy-2" points="76.6892917 0 87.0354132 16 66.3431703 16"></polygon>
                    <polygon id="Triangle-Copy-5" points="209.44674 0 219.792861 16 199.100618 16"></polygon>
                    <polygon id="Triangle-Copy" points="43.5532603 0 53.8993817 16 33.2071388 16"></polygon>
                    <polygon id="Triangle-Copy-6" points="176.310708 0 186.65683 16 165.964587 16"></polygon>
                    <polygon id="Triangle-Copy-3" points="109.896431 0 120.242552 16 99.5503092 16"></polygon>
                    <polygon id="Triangle-Copy-7" points="242.653879 0 253 16 232.307757 16"></polygon>
                </g>
            </g>
        </g>
    </g>
</svg>