<?xml version="1.0" encoding="UTF-8"?>
<svg width="210px" height="292px" viewBox="0 0 210 292" version="1.1" xmlns="http://www.w3.org/2000/svg" xmlns:xlink="http://www.w3.org/1999/xlink">
    <!-- Generator: Sketch 52.5 (67469) - http://www.bohemiancoding.com/sketch -->
    <title>Group 10</title>
    <desc>Created with Sketch.</desc>
    <g id="Page-1" stroke="none" stroke-width="1" fill="none" fill-rule="evenodd">
        <g id="EWP-Full-Home-Internal" transform="translate(-13.000000, -1197.000000)">
            <g id="Group-9" transform="translate(-477.000000, 814.000000)">
                <g id="Group-8" transform="translate(390.766015, 521.603987) rotate(29.000000) translate(-390.766015, -521.603987) translate(82.266015, 273.103987)">
                    <g id="Group-10" transform="translate(-0.000000, -0.000000)">
                        <circle id="Oval" fill="#FFA400" cx="513.13635" cy="192.326946" r="103"></circle>
                        <g id="Group-17" transform="translate(272.496175, 196.516964) rotate(-29.000000) translate(-272.496175, -196.516964) translate(2.996175, 121.516964)" fill="#000000">
                            <g id="Group-16">
                                <g id="Group-15-Copy-7" transform="translate(422.654281, 0.000000)">
                                    <rect id="Rectangle" x="8.96974281" y="0" width="3.58789713" height="21"></rect>
                                    <polygon id="Rectangle" transform="translate(10.763691, 10.500000) rotate(-270.000000) translate(-10.763691, -10.500000) " points="9.01369138 -0.263691377 12.5136914 -0.263691377 12.5136914 21.2636914 9.01369138 21.2636914"></polygon>
                                </g>
                                <g id="Group-15-Copy-9" transform="translate(516.657186, 0.000000)">
                                    <rect id="Rectangle" x="8.96974281" y="0" width="3.58789713" height="21"></rect>
                                    <polygon id="Rectangle" transform="translate(10.763691, 10.500000) rotate(-270.000000) translate(-10.763691, -10.500000) " points="9.01369138 -0.263691377 12.5136914 -0.263691377 12.5136914 21.2636914 9.01369138 21.2636914"></polygon>
                                </g>
                                <g id="Group-15-Copy-10" transform="translate(469.655734, 0.000000)">
                                    <rect id="Rectangle" x="8.96974281" y="0" width="3.58789713" height="21"></rect>
                                    <polygon id="Rectangle" transform="translate(10.763691, 10.500000) rotate(-270.000000) translate(-10.763691, -10.500000) " points="9.01369138 -0.263691377 12.5136914 -0.263691377 12.5136914 21.2636914 9.01369138 21.2636914"></polygon>
                                </g>
                                <g id="Group-15-Copy-11" transform="translate(375.652829, 0.000000)">
                                    <rect id="Rectangle" x="8.96974281" y="0" width="3.58789713" height="21"></rect>
                                    <polygon id="Rectangle" transform="translate(10.763691, 10.500000) rotate(-270.000000) translate(-10.763691, -10.500000) " points="9.01369138 -0.263691377 12.5136914 -0.263691377 12.5136914 21.2636914 9.01369138 21.2636914"></polygon>
                                </g>
                            </g>
                            <g id="Group-16-Copy-2" transform="translate(0.000000, 86.000000)">
                                <g id="Group-15-Copy-7" transform="translate(422.654281, 0.000000)">
                                    <rect id="Rectangle" x="8.96974281" y="0" width="3.58789713" height="21"></rect>
                                    <polygon id="Rectangle" transform="translate(10.763691, 10.500000) rotate(-270.000000) translate(-10.763691, -10.500000) " points="9.01369138 -0.263691377 12.5136914 -0.263691377 12.5136914 21.2636914 9.01369138 21.2636914"></polygon>
                                </g>
                                <g id="Group-15-Copy-9" transform="translate(516.657186, 0.000000)">
                                    <rect id="Rectangle" x="8.96974281" y="0" width="3.58789713" height="21"></rect>
                                    <polygon id="Rectangle" transform="translate(10.763691, 10.500000) rotate(-270.000000) translate(-10.763691, -10.500000) " points="9.01369138 -0.263691377 12.5136914 -0.263691377 12.5136914 21.2636914 9.01369138 21.2636914"></polygon>
                                </g>
                                <g id="Group-15-Copy-10" transform="translate(469.655734, 0.000000)">
                                    <rect id="Rectangle" x="8.96974281" y="0" width="3.58789713" height="21"></rect>
                                    <polygon id="Rectangle" transform="translate(10.763691, 10.500000) rotate(-270.000000) translate(-10.763691, -10.500000) " points="9.01369138 -0.263691377 12.5136914 -0.263691377 12.5136914 21.2636914 9.01369138 21.2636914"></polygon>
                                </g>
                                <g id="Group-15-Copy-11" transform="translate(375.652829, 0.000000)">
                                    <rect id="Rectangle" x="8.96974281" y="0" width="3.58789713" height="21"></rect>
                                    <polygon id="Rectangle" transform="translate(10.763691, 10.500000) rotate(-270.000000) translate(-10.763691, -10.500000) " points="9.01369138 -0.263691377 12.5136914 -0.263691377 12.5136914 21.2636914 9.01369138 21.2636914"></polygon>
                                </g>
                            </g>
                            <g id="Group-16-Copy-3" transform="translate(0.000000, 129.000000)">
                                <g id="Group-15-Copy-7" transform="translate(422.654281, 0.000000)">
                                    <rect id="Rectangle" x="8.96974281" y="0" width="3.58789713" height="21"></rect>
                                    <polygon id="Rectangle" transform="translate(10.763691, 10.500000) rotate(-270.000000) translate(-10.763691, -10.500000) " points="9.01369138 -0.263691377 12.5136914 -0.263691377 12.5136914 21.2636914 9.01369138 21.2636914"></polygon>
                                </g>
                                <g id="Group-15-Copy-9" transform="translate(516.657186, 0.000000)">
                                    <rect id="Rectangle" x="8.96974281" y="0" width="3.58789713" height="21"></rect>
                                    <polygon id="Rectangle" transform="translate(10.763691, 10.500000) rotate(-270.000000) translate(-10.763691, -10.500000) " points="9.01369138 -0.263691377 12.5136914 -0.263691377 12.5136914 21.2636914 9.01369138 21.2636914"></polygon>
                                </g>
                                <g id="Group-15-Copy-10" transform="translate(469.655734, 0.000000)">
                                    <rect id="Rectangle" x="8.96974281" y="0" width="3.58789713" height="21"></rect>
                                    <polygon id="Rectangle" transform="translate(10.763691, 10.500000) rotate(-270.000000) translate(-10.763691, -10.500000) " points="9.01369138 -0.263691377 12.5136914 -0.263691377 12.5136914 21.2636914 9.01369138 21.2636914"></polygon>
                                </g>
                                <g id="Group-15-Copy-11" transform="translate(375.652829, 0.000000)">
                                    <rect id="Rectangle" x="8.96974281" y="0" width="3.58789713" height="21"></rect>
                                    <polygon id="Rectangle" transform="translate(10.763691, 10.500000) rotate(-270.000000) translate(-10.763691, -10.500000) " points="9.01369138 -0.263691377 12.5136914 -0.263691377 12.5136914 21.2636914 9.01369138 21.2636914"></polygon>
                                </g>
                            </g>
                            <g id="Group-16-Copy" transform="translate(0.000000, 43.000000)">
                                <g id="Group-15-Copy-7" transform="translate(422.654281, 0.000000)">
                                    <rect id="Rectangle" x="8.96974281" y="0" width="3.58789713" height="21"></rect>
                                    <polygon id="Rectangle" transform="translate(10.763691, 10.500000) rotate(-270.000000) translate(-10.763691, -10.500000) " points="9.01369138 -0.263691377 12.5136914 -0.263691377 12.5136914 21.2636914 9.01369138 21.2636914"></polygon>
                                </g>
                                <g id="Group-15-Copy-9" transform="translate(516.657186, 0.000000)">
                                    <rect id="Rectangle" x="8.96974281" y="0" width="3.58789713" height="21"></rect>
                                    <polygon id="Rectangle" transform="translate(10.763691, 10.500000) rotate(-270.000000) translate(-10.763691, -10.500000) " points="9.01369138 -0.263691377 12.5136914 -0.263691377 12.5136914 21.2636914 9.01369138 21.2636914"></polygon>
                                </g>
                                <g id="Group-15-Copy-10" transform="translate(469.655734, 0.000000)">
                                    <rect id="Rectangle" x="8.96974281" y="0" width="3.58789713" height="21"></rect>
                                    <polygon id="Rectangle" transform="translate(10.763691, 10.500000) rotate(-270.000000) translate(-10.763691, -10.500000) " points="9.01369138 -0.263691377 12.5136914 -0.263691377 12.5136914 21.2636914 9.01369138 21.2636914"></polygon>
                                </g>
                                <g id="Group-15-Copy-11" transform="translate(375.652829, 0.000000)">
                                    <rect id="Rectangle" x="8.96974281" y="0" width="3.58789713" height="21"></rect>
                                    <polygon id="Rectangle" transform="translate(10.763691, 10.500000) rotate(-270.000000) translate(-10.763691, -10.500000) " points="9.01369138 -0.263691377 12.5136914 -0.263691377 12.5136914 21.2636914 9.01369138 21.2636914"></polygon>
                                </g>
                            </g>
                        </g>
                    </g>
                </g>
            </g>
        </g>
    </g>
</svg>