<?xml version="1.0" encoding="UTF-8"?>
<svg width="1103px" height="807px" viewBox="0 0 1103 807" version="1.1" xmlns="http://www.w3.org/2000/svg" xmlns:xlink="http://www.w3.org/1999/xlink">
    <!-- Generator: Sketch 52.5 (67469) - http://www.bohemiancoding.com/sketch -->
    <title>logo white</title>
    <desc>Created with Sketch.</desc>
    <g id="Page-1" stroke="none" stroke-width="1" fill="none" fill-rule="evenodd" opacity="0.132626488">
        <g id="EWP-Full-Home-V1.2" transform="translate(-337.000000, -820.000000)" fill="#FFFFFF">
            <g id="logo-white" transform="translate(337.000000, 820.000000)">
                <path d="M1256,18.3572077 C1208.2374,18.3572077 1162.49287,18.7398787 1116.76567,18.0765823 C1105.89188,17.9206793 1102.06682,22.0110072 1098.86048,31.3992027 C1073.38035,106.025719 1047.33644,180.467987 1021.47467,254.969782 C1004.63922,303.46412 987.821122,351.961293 970.99724,400.458466 C969.973756,400.421616 968.950271,400.379097 967.926787,400.339413 C966.353975,396.002475 964.729122,391.67971 963.214134,387.322929 C922.130207,269.117271 880.919067,150.956966 840.234125,32.6209154 C836.631692,22.1413988 832.482822,17.7449341 820.348463,18.0113865 C779.414878,18.9184585 738.446598,18.3316963 697.492775,18.3968921 C692.947811,18.4053959 688.405739,18.9439699 682.548171,19.3181371 C697.319303,61.7832812 711.971896,102.604357 725.447771,143.796766 C728.000699,151.603254 728.096109,161.572543 725.551854,169.359189 C712.070197,210.64514 697.382909,251.551254 683.111955,292.590594 C672.21792,323.91576 661.323885,355.240925 649.177961,390.163199 C616.961339,297.40091 586.00817,208.278249 554.537477,117.673091 C552.510747,120.757136 551.417874,121.822946 551.030453,123.095681 C528.892548,195.797505 506.693928,268.479486 484.975246,341.300362 C483.361958,346.711614 483.85057,353.585519 485.703828,359.008109 C513.031434,438.994854 540.841871,518.822862 568.256213,598.781262 C570.901659,606.502712 574.267014,610.102655 583.382962,609.997774 C627.222201,609.487546 671.073005,609.507389 714.912245,609.989271 C723.927001,610.088482 727.358853,606.794676 729.937802,598.852127 C737.955095,574.159925 746.851312,549.74268 755.374564,525.209216 C772.042322,477.230775 788.689842,429.24383 806.392649,378.238036 C809.341671,385.837599 811.319251,390.492012 812.970125,395.25414 C836.316551,462.632585 859.778625,529.974179 882.746304,597.477346 C885.8023,606.457359 889.919367,610.06297 899.986519,609.946752 C945.751297,609.419516 991.53053,609.39117 1037.29531,609.980767 C1048.40907,610.125331 1052.88176,606.216418 1056.37143,596.102565 C1121.21523,408.168578 1186.48403,220.373487 1251.63718,32.5415466 C1253.1088,28.3009848 1254.28552,23.9640467 1256,18.3572077" id="Fill-1"></path>
                <path d="M1737.86693,272.608927 C1716.5344,85.8650682 1522.58144,-41.0888058 1339.4272,12.2620346 C1333.81446,13.8971431 1327.51889,20.4896689 1325.61462,26.1069177 C1304.41159,88.6172596 1284.00618,151.390955 1263.40652,214.100983 C1261.54934,219.750066 1259.8246,225.442558 1258.03806,231.114793 C1310.09791,136.868877 1415.93351,110.953131 1497.21963,145.646371 C1577.19013,179.778175 1622.39225,266.155313 1603.37016,348.495324 C1583.4857,434.565698 1506.8852,493.475907 1419.01507,490.361966 C1364.51529,488.428776 1319.43384,466.926376 1284.34171,426.213622 C1249.13774,385.367744 1237.01457,337.237675 1242.00335,284.124142 C1239.61639,286.847393 1238.38906,289.356489 1237.5267,291.978451 C1185.59635,449.874944 1133.5159,607.722239 1082.13299,765.792372 C1077.98304,778.557794 1078.64527,792.833883 1077,807 L1234.23322,807 L1234.23322,559.328816 C1240.92907,563.773996 1244.92009,566.485672 1248.96997,569.104739 C1315.10435,611.898277 1387.80212,629.282519 1466.00668,618.704959 C1639.71905,595.208595 1757.49239,444.416865 1737.86693,272.608927" id="Fill-3"></path>
                <path d="M284.982041,128.543488 C365.269928,118.816645 424.02116,160.373376 449.400358,247.764568 C467.114601,192.04708 483.382138,139.846641 500.501017,87.92965 C503.78271,77.9772061 501.714754,72.5483374 493.91462,66.2344214 C431.47328,15.6912779 359.460093,-4.92222623 280.71095,0.980981553 C165.35985,9.62899295 77.8355556,63.4722639 27.8335888,170.704713 C-1.29036387,233.167072 -5.98712613,299.629498 6.47525652,367.083987 C35.9587286,526.730905 173.643178,618.796073 323.027829,609.335322 C331.656296,608.788675 336.557266,606.278148 339.298242,597.141336 C351.030081,558.028608 363.639148,519.184864 375.811039,480.20229 C376.705523,477.338902 376.659504,474.177605 377.119689,470.61717 C246.151063,508.324235 154.706569,431.805242 153.797704,355.916772 L169.418105,355.916772 L380.712008,355.916772 C415.407074,355.916772 415.453093,355.934126 425.761235,323.15556 C433.060918,299.941868 440.208165,276.676114 447.939271,251.776204 L151.442132,251.776204 C155.083345,186.950827 208.870333,137.76707 284.982041,128.543488" id="Fill-6"></path>
            </g>
        </g>
    </g>
</svg>