<?xml version="1.0" encoding="UTF-8"?>
<svg width="116px" height="112px" viewBox="0 0 116 112" version="1.1" xmlns="http://www.w3.org/2000/svg" xmlns:xlink="http://www.w3.org/1999/xlink">
    <!-- Generator: Sketch 52.5 (67469) - http://www.bohemiancoding.com/sketch -->
    <title>Group 18</title>
    <desc>Created with Sketch.</desc>
    <g id="Page-1" stroke="none" stroke-width="1" fill="none" fill-rule="evenodd">
        <g id="EWP-Full-Home-V1.2" transform="translate(-707.000000, -1992.000000)">
            <g id="Group-13" transform="translate(103.000000, 1663.000000)">
                <g id="Group-18" transform="translate(603.800000, 329.200000)">
                    <rect id="Rectangle" fill="#28AFB0" transform="translate(36.200000, 27.800000) rotate(58.000000) translate(-36.200000, -27.800000) " x="25.4" y="-7" width="21.6" height="69.6"></rect>
                    <g id="Group-12" transform="translate(25.000000, 19.800000)" stroke-width="4.8">
                        <polyline id="Stroke-26" stroke="#020303" stroke-linecap="round" stroke-linejoin="round" points="33.69024 64.2756 26.76024 57.3456 33.69024 50.4156"></polyline>
                        <polyline id="Stroke-27" stroke="#020303" stroke-linecap="round" stroke-linejoin="round" points="55.47012 24.6756 62.40012 31.6056 55.47012 38.5356"></polyline>
                        <path d="M26.75976,45.46584 L26.75976,37.54344 C26.75976,34.26384 29.41536,31.60584 32.69976,31.60584 L60.41976,31.60584" id="Stroke-28" stroke="#020303" stroke-linecap="round" stroke-linejoin="round"></path>
                        <path d="M62.4,43.48536 L62.4,51.40776 C62.4,54.68736 59.7444,57.34536 56.46,57.34536 L28.74,57.34536" id="Stroke-29" stroke="#020303" stroke-linecap="round" stroke-linejoin="round"></path>
                        <polygon id="Stroke-33" stroke="#1D1D1B" points="0 88.8 88.8 88.8 88.8 0 0 0"></polygon>
                    </g>
                </g>
            </g>
        </g>
    </g>
</svg>