<?xml version="1.0" encoding="UTF-8"?>
<svg width="40px" height="40px" viewBox="0 0 40 40" version="1.1" xmlns="http://www.w3.org/2000/svg" xmlns:xlink="http://www.w3.org/1999/xlink">
    <!-- Generator: Sketch 52.5 (67469) - http://www.bohemiancoding.com/sketch -->
    <title>Icon 24px</title>
    <desc>Created with Sketch.</desc>
    <g id="Page-1" stroke="none" stroke-width="1" fill="none" fill-rule="evenodd">
        <g id="EWP-Full-Home-V1.2" transform="translate(-427.000000, -4747.000000)">
            <g id="ic_chat_bubble_outline" transform="translate(447.000000, 4767.000000) scale(-1, 1) translate(-447.000000, -4767.000000) translate(423.000000, 4743.000000)">
                <g id="Icon-24px">
                    <polygon id="Shape" points="0 0 48 0 48 48 0 48"></polygon>
                    <path d="M40,4 L8,4 C5.8,4 4,5.8 4,8 L4,44 L12,36 L40,36 C42.2,36 44,34.2 44,32 L44,8 C44,5.8 42.2,4 40,4 L40,4 Z M40,32 L12,32 L8,36 L8,8 L40,8 L40,32 L40,32 Z" id="Shape" fill="#000000"></path>
                </g>
            </g>
        </g>
    </g>
</svg>