<?xml version="1.0" encoding="UTF-8"?>
<svg width="102px" height="47px" viewBox="0 0 102 47" version="1.1" xmlns="http://www.w3.org/2000/svg" xmlns:xlink="http://www.w3.org/1999/xlink">
    <!-- Generator: Sketch 52.5 (67469) - http://www.bohemiancoding.com/sketch -->
    <title>logo white</title>
    <desc>Created with Sketch.</desc>
    <g id="Page-1" stroke="none" stroke-width="1" fill="none" fill-rule="evenodd">
        <g id="EWP-Full-Home-V1.2" transform="translate(-669.000000, -32.000000)" fill="#FFFFFF">
            <g id="logo-white" transform="translate(669.000000, 32.000000)">
                <path d="M74.127907,1.19591505 C71.3028119,1.19591505 68.5970822,1.21832102 65.8923786,1.17948401 C65.2492078,1.17035565 65.0229607,1.40985057 64.83331,1.95954369 C63.3261936,6.3290397 61.7857301,10.6877476 60.2560403,15.049941 C59.2602456,17.8893582 58.265477,20.7289414 57.2703663,23.5685246 C57.2098286,23.566367 57.1492908,23.5638775 57.0887531,23.5615539 C56.9957233,23.3076196 56.8996153,23.0545151 56.8100058,22.799419 C54.3799452,15.878298 51.9423601,8.95983247 49.535899,2.03107682 C49.3228198,1.4174852 49.0774196,1.1600655 48.3596881,1.1756667 C45.9385201,1.22877714 43.5152999,1.19442132 41.0929348,1.19823864 C40.8241061,1.19873655 40.5554485,1.23027087 40.208981,1.25217893 C41.0826742,3.73857767 41.9493559,6.12871373 42.7464363,8.54059188 C42.8974386,8.99767366 42.903082,9.58139066 42.7525927,10.0373106 C41.9551702,12.4546658 41.0864364,14.849781 40.2423281,17.2526967 C39.5979602,19.0868328 38.9535922,20.9209689 38.2351767,22.9657211 C36.3296056,17.5343481 34.4987662,12.3160807 32.6373158,7.01101102 C32.5174374,7.19158654 32.4527954,7.25399132 32.42988,7.32851191 C31.1204518,11.5853142 29.8074324,15.8409547 28.5228008,20.1047277 C28.4273769,20.4215647 28.4562777,20.8240423 28.5658955,21.1415432 C30.1822877,25.8248887 31.8272386,30.49894 33.4487611,35.1806258 C33.6052358,35.6327285 33.8042921,35.8435106 34.3434885,35.8373697 C36.9365222,35.8074951 39.53024,35.8086569 42.1232737,35.8368718 C42.6564847,35.8426807 42.8594743,35.6498234 43.0120157,35.1847751 C43.4862281,33.7390091 44.0124277,32.3093423 44.516567,30.8728707 C45.5024431,28.06366 46.4871221,25.2539515 47.53422,22.2674847 C47.7086508,22.7124506 47.825622,22.9849736 47.9232691,23.2638034 C49.3041797,27.2089138 50.6919307,31.1518665 52.0504388,35.1042796 C52.231197,35.630073 52.4747161,35.841187 53.070175,35.8343822 C55.7771018,35.8035118 58.4848836,35.8018521 61.1918103,35.8363739 C61.8491751,35.8448383 62.1137285,35.6159655 62.3201383,35.023784 C66.1555639,24.0199634 70.0161282,13.0242753 73.869852,2.02642966 C73.9568964,1.77813832 74.0264977,1.524204 74.127907,1.19591505" id="Fill-1"></path>
                <path d="M101.875984,15.876852 C100.635721,5.00081562 89.3593863,-2.39302835 78.7108836,0.714145756 C78.3845615,0.809375122 78.0185401,1.19332644 77.9078268,1.52047724 C76.6750926,5.16110434 75.4887314,8.81706927 74.2910765,12.4693261 C74.183101,12.798331 74.0828259,13.129864 73.9789572,13.4602172 C77.0056926,7.97129766 83.1589252,6.46195434 87.8848624,8.48250238 C92.5343099,10.4703522 95.1623403,15.5009909 94.0564046,20.2965059 C92.9003313,25.3092786 88.4468139,28.7402325 83.3380857,28.5588754 C80.1694935,28.4462856 77.5484789,27.1939773 75.5082389,24.8228503 C73.4614964,22.4439702 72.7566613,19.6408559 73.0467063,16.5475027 C72.9079296,16.7061059 72.8365734,16.8522367 72.7864358,17.0049407 C69.7672296,26.2008951 66.7392964,35.3939842 63.7519182,44.6000514 C63.5106418,45.3435147 63.5491433,46.1749597 63.4534884,47 L72.5949548,47 L72.5949548,32.575532 C72.9842482,32.8344211 73.2162843,32.9923501 73.4517426,33.1448857 C77.2967643,35.6371983 81.5233792,36.6496634 86.0701559,36.0336221 C96.169712,34.6651846 103.016999,25.8830144 101.875984,15.876852" id="Fill-3"></path>
                <path d="M16.8327667,8.0156278 C21.575056,7.4535438 25.0452599,9.85497789 26.5443091,14.9050427 C27.5906197,11.6853025 28.551479,8.66880182 29.5626237,5.66868059 C29.7564605,5.09355986 29.6343145,4.77984245 29.1735912,4.41498091 C25.4854272,1.49425007 21.2318919,0.303059878 16.5804902,0.644187868 C9.76715503,1.14392951 4.5974397,4.25536443 1.64402046,10.4519937 C-0.0762167114,14.0614988 -0.353635959,17.9021554 0.382467899,21.8001402 C2.12394047,31.0256384 10.2564186,36.3457976 19.0799816,35.7990903 C19.5896311,35.7675013 19.8791121,35.6224258 20.0410108,35.0944379 C20.7339643,32.8342351 21.4787322,30.5895762 22.1976779,28.3368946 C22.2505115,28.1714283 22.2477934,27.9887469 22.2749747,27.7830004 C14.5391738,29.9619742 9.1379077,25.5401799 9.08422461,21.1548217 L10.0068602,21.1548217 L22.4871588,21.1548217 C24.5364597,21.1548217 24.5391778,21.1558245 25.1480392,19.2616533 C25.5792027,17.9202063 26.0013625,16.5757509 26.4580085,15.1368626 L8.94509028,15.1368626 C9.16016239,11.390806 12.3371479,8.54862984 16.8327667,8.0156278" id="Fill-6"></path>
            </g>
        </g>
    </g>
</svg>